<svg id="visual" viewBox="0 0 900 450" width="900" height="450" xmlns="http://www.w3.org/2000/svg" xmlns:xlink="http://www.w3.org/1999/xlink" version="1.1"><path d="M0 64L13.7 64.8C27.3 65.7 54.7 67.3 82 62.2C109.3 57 136.7 45 163.8 40.5C191 36 218 39 245.2 45.7C272.3 52.3 299.7 62.7 327 61.8C354.3 61 381.7 49 409 45.3C436.3 41.7 463.7 46.3 491 44.8C518.3 43.3 545.7 35.7 573 34.8C600.3 34 627.7 40 654.8 45.3C682 50.7 709 55.3 736.2 56.2C763.3 57 790.7 54 818 56.2C845.3 58.3 872.7 65.7 886.3 69.3L900 73L900 0L886.3 0C872.7 0 845.3 0 818 0C790.7 0 763.3 0 736.2 0C709 0 682 0 654.8 0C627.7 0 600.3 0 573 0C545.7 0 518.3 0 491 0C463.7 0 436.3 0 409 0C381.7 0 354.3 0 327 0C299.7 0 272.3 0 245.2 0C218 0 191 0 163.8 0C136.7 0 109.3 0 82 0C54.7 0 27.3 0 13.7 0L0 0Z" fill="#23a0e8"></path><path d="M0 190L13.7 183.3C27.3 176.7 54.7 163.3 82 151.3C109.3 139.3 136.7 128.7 163.8 129.3C191 130 218 142 245.2 154C272.3 166 299.7 178 327 181.8C354.3 185.7 381.7 181.3 409 185.2C436.3 189 463.7 201 491 209.2C518.3 217.3 545.7 221.7 573 222.3C600.3 223 627.7 220 654.8 208.8C682 197.7 709 178.3 736.2 178.3C763.3 178.3 790.7 197.7 818 200.7C845.3 203.7 872.7 190.3 886.3 183.7L900 177L900 71L886.3 67.3C872.7 63.7 845.3 56.3 818 54.2C790.7 52 763.3 55 736.2 54.2C709 53.3 682 48.7 654.8 43.3C627.7 38 600.3 32 573 32.8C545.7 33.7 518.3 41.3 491 42.8C463.7 44.3 436.3 39.7 409 43.3C381.7 47 354.3 59 327 59.8C299.7 60.7 272.3 50.3 245.2 43.7C218 37 191 34 163.8 38.5C136.7 43 109.3 55 82 60.2C54.7 65.3 27.3 63.7 13.7 62.8L0 62Z" fill="#3daded"></path><path d="M0 325L13.7 322.8C27.3 320.7 54.7 316.3 82 305.2C109.3 294 136.7 276 163.8 270.7C191 265.3 218 272.7 245.2 283.2C272.3 293.7 299.7 307.3 327 308.2C354.3 309 381.7 297 409 289.5C436.3 282 463.7 279 491 282.7C518.3 286.3 545.7 296.7 573 303.3C600.3 310 627.7 313 654.8 307C682 301 709 286 736.2 292C763.3 298 790.7 325 818 337.8C845.3 350.7 872.7 349.3 886.3 348.7L900 348L900 175L886.3 181.7C872.7 188.3 845.3 201.7 818 198.7C790.7 195.7 763.3 176.3 736.2 176.3C709 176.3 682 195.7 654.8 206.8C627.7 218 600.3 221 573 220.3C545.7 219.7 518.3 215.3 491 207.2C463.7 199 436.3 187 409 183.2C381.7 179.3 354.3 183.7 327 179.8C299.7 176 272.3 164 245.2 152C218 140 191 128 163.8 127.3C136.7 126.7 109.3 137.3 82 149.3C54.7 161.3 27.3 174.7 13.7 181.3L0 188Z" fill="#53baf2"></path><path d="M0 361L13.7 367.8C27.3 374.7 54.7 388.3 82 385.3C109.3 382.3 136.7 362.7 163.8 355.8C191 349 218 355 245.2 365.5C272.3 376 299.7 391 327 387.3C354.3 383.7 381.7 361.3 409 352.3C436.3 343.3 463.7 347.7 491 357.3C518.3 367 545.7 382 573 382C600.3 382 627.7 367 654.8 358.8C682 350.7 709 349.3 736.2 359.2C763.3 369 790.7 390 818 396C845.3 402 872.7 393 886.3 388.5L900 384L900 346L886.3 346.7C872.7 347.3 845.3 348.7 818 335.8C790.7 323 763.3 296 736.2 290C709 284 682 299 654.8 305C627.7 311 600.3 308 573 301.3C545.7 294.7 518.3 284.3 491 280.7C463.7 277 436.3 280 409 287.5C381.7 295 354.3 307 327 306.2C299.7 305.3 272.3 291.7 245.2 281.2C218 270.7 191 263.3 163.8 268.7C136.7 274 109.3 292 82 303.2C54.7 314.3 27.3 318.7 13.7 320.8L0 323Z" fill="#68c7f7"></path><path d="M0 451L13.7 451C27.3 451 54.7 451 82 451C109.3 451 136.7 451 163.8 451C191 451 218 451 245.2 451C272.3 451 299.7 451 327 451C354.3 451 381.7 451 409 451C436.3 451 463.7 451 491 451C518.3 451 545.7 451 573 451C600.3 451 627.7 451 654.8 451C682 451 709 451 736.2 451C763.3 451 790.7 451 818 451C845.3 451 872.7 451 886.3 451L900 451L900 382L886.3 386.5C872.7 391 845.3 400 818 394C790.7 388 763.3 367 736.2 357.2C709 347.3 682 348.7 654.8 356.8C627.7 365 600.3 380 573 380C545.7 380 518.3 365 491 355.3C463.7 345.7 436.3 341.3 409 350.3C381.7 359.3 354.3 381.7 327 385.3C299.7 389 272.3 374 245.2 363.5C218 353 191 347 163.8 353.8C136.7 360.7 109.3 380.3 82 383.3C54.7 386.3 27.3 372.7 13.7 365.8L0 359Z" fill="#7dd3fc"></path></svg>