<svg id="visual" viewBox="0 0 900 450" width="900" height="450" xmlns="http://www.w3.org/2000/svg" xmlns:xlink="http://www.w3.org/1999/xlink" version="1.1"><rect x="0" y="0" width="900" height="450" fill="#7dd3fc"></rect><path d="M0 218L21.5 209.8C43 201.7 86 185.3 128.8 179.8C171.7 174.3 214.3 179.7 257.2 189.3C300 199 343 213 385.8 214.8C428.7 216.7 471.3 206.3 514.2 206C557 205.7 600 215.3 642.8 216.7C685.7 218 728.3 211 771.2 202.3C814 193.7 857 183.3 878.5 178.2L900 173L900 0L878.5 0C857 0 814 0 771.2 0C728.3 0 685.7 0 642.8 0C600 0 557 0 514.2 0C471.3 0 428.7 0 385.8 0C343 0 300 0 257.2 0C214.3 0 171.7 0 128.8 0C86 0 43 0 21.5 0L0 0Z" fill="#ffcda9"></path><path d="M0 159L21.5 157.7C43 156.3 86 153.7 128.8 153.2C171.7 152.7 214.3 154.3 257.2 158.7C300 163 343 170 385.8 172.5C428.7 175 471.3 173 514.2 168.7C557 164.3 600 157.7 642.8 159C685.7 160.3 728.3 169.7 771.2 168.3C814 167 857 155 878.5 149L900 143L900 0L878.5 0C857 0 814 0 771.2 0C728.3 0 685.7 0 642.8 0C600 0 557 0 514.2 0C471.3 0 428.7 0 385.8 0C343 0 300 0 257.2 0C214.3 0 171.7 0 128.8 0C86 0 43 0 21.5 0L0 0Z" fill="#ffa69c"></path><path d="M0 127L21.5 126C43 125 86 123 128.8 123.8C171.7 124.7 214.3 128.3 257.2 130.3C300 132.3 343 132.7 385.8 127.2C428.7 121.7 471.3 110.3 514.2 110.8C557 111.3 600 123.7 642.8 131.2C685.7 138.7 728.3 141.3 771.2 137.2C814 133 857 122 878.5 116.5L900 111L900 0L878.5 0C857 0 814 0 771.2 0C728.3 0 685.7 0 642.8 0C600 0 557 0 514.2 0C471.3 0 428.7 0 385.8 0C343 0 300 0 257.2 0C214.3 0 171.7 0 128.8 0C86 0 43 0 21.5 0L0 0Z" fill="#ff81ad"></path><path d="M0 69L21.5 73.2C43 77.3 86 85.7 128.8 85C171.7 84.3 214.3 74.7 257.2 75.8C300 77 343 89 385.8 91.2C428.7 93.3 471.3 85.7 514.2 85.2C557 84.7 600 91.3 642.8 93.2C685.7 95 728.3 92 771.2 88.5C814 85 857 81 878.5 79L900 77L900 0L878.5 0C857 0 814 0 771.2 0C728.3 0 685.7 0 642.8 0C600 0 557 0 514.2 0C471.3 0 428.7 0 385.8 0C343 0 300 0 257.2 0C214.3 0 171.7 0 128.8 0C86 0 43 0 21.5 0L0 0Z" fill="#da6cd4"></path><path d="M0 35L21.5 37.7C43 40.3 86 45.7 128.8 44.5C171.7 43.3 214.3 35.7 257.2 37.2C300 38.7 343 49.3 385.8 55.2C428.7 61 471.3 62 514.2 61.7C557 61.3 600 59.7 642.8 58.7C685.7 57.7 728.3 57.3 771.2 53.3C814 49.3 857 41.7 878.5 37.8L900 34L900 0L878.5 0C857 0 814 0 771.2 0C728.3 0 685.7 0 642.8 0C600 0 557 0 514.2 0C471.3 0 428.7 0 385.8 0C343 0 300 0 257.2 0C214.3 0 171.7 0 128.8 0C86 0 43 0 21.5 0L0 0Z" fill="#6d72ff"></path></svg>